# Blender 4.4.1
# www.blender.org
mtllib arco.mtl
o arch
v -0.585940 0.329687 -0.016816
v -0.598016 0.317507 -0.016816
v -0.585940 -1.012824 1.732780
v -0.598016 -1.015976 1.721015
v -0.585940 -0.575969 1.551829
v -0.598016 -0.582059 1.541281
v -0.585940 -0.200834 1.263977
v -0.598016 -0.209446 1.255365
v -0.585940 0.087018 0.888842
v -0.598016 0.076470 0.882752
v -0.585940 0.267968 0.451987
v -0.598016 0.256203 0.448835
v -0.598016 -1.469552 -1.814360
v -0.610091 -1.481627 -1.816054
v -0.585940 -1.493600 -1.828910
v -0.598016 0.256203 -0.482466
v -0.585940 0.267968 -0.485619
v -0.598016 0.076469 -0.916383
v -0.585940 0.087016 -0.922473
v -0.598016 -0.209448 -1.288996
v -0.585940 -0.200836 -1.297608
v -0.598016 -0.582061 -1.574912
v -0.585940 -0.575970 -1.585459
v -0.598016 -1.015977 -1.754646
v -0.585940 -1.012825 -1.766410
v 0.609527 0.317507 -0.016815
v 0.597451 0.329687 -0.016815
v 0.609527 -1.469551 1.780730
v 0.621602 -1.481626 1.782424
v 0.597451 -1.493599 1.795281
v 0.609527 0.256203 0.448835
v 0.597451 0.267968 0.451987
v 0.609527 0.076470 0.882752
v 0.597451 0.087018 0.888842
v 0.609527 -0.209446 1.255365
v 0.597451 -0.200834 1.263977
v 0.609527 -0.582059 1.541281
v 0.597451 -0.575969 1.551829
v 0.609527 -1.015976 1.721015
v 0.597451 -1.012824 1.732780
v 0.597451 -1.012825 -1.766410
v 0.609527 -1.015977 -1.754646
v 0.597451 -0.575970 -1.585459
v 0.609527 -0.582061 -1.574912
v 0.597451 -0.200836 -1.297608
v 0.609527 -0.209448 -1.288996
v 0.597451 0.087016 -0.922473
v 0.609527 0.076469 -0.916383
v 0.597451 0.267968 -0.485619
v 0.609527 0.256203 -0.482466
v 0.597451 -0.279294 -0.016815
v 0.609527 -0.267117 -0.016815
v 0.609527 -0.308501 -0.331154
v 0.597451 -0.320263 -0.328003
v -0.585940 -0.320263 -0.328003
v -0.598016 -0.308501 -0.331154
v -0.598016 -0.267117 -0.016815
v -0.585940 -0.279294 -0.016815
v 0.609527 -1.167290 -1.189939
v 0.597451 -1.170441 -1.178180
v -0.585940 -0.440376 -0.617982
v -0.598016 -0.429832 -0.624070
v 0.609527 -0.429831 -0.624070
v 0.597451 -0.440376 -0.617982
v -0.585940 -0.631450 -0.866993
v -0.598016 -0.622840 -0.875603
v 0.609527 -0.622840 -0.875603
v 0.597451 -0.631450 -0.866993
v -0.585940 -0.880461 -1.058066
v -0.598016 -0.874374 -1.068610
v 0.609527 -0.874374 -1.068610
v 0.597451 -0.880461 -1.058066
v -0.585940 -1.170441 -1.178180
v -0.598016 -1.167290 -1.189939
v 0.597451 -0.320263 0.294371
v 0.609527 -0.308501 0.297523
v -0.598016 -0.308501 0.297523
v -0.585940 -0.320263 0.294371
v 0.597451 -0.440376 0.584351
v 0.609527 -0.429831 0.590439
v -0.598016 -0.429830 0.590439
v -0.585940 -0.440376 0.584351
v 0.597451 -0.631449 0.833362
v 0.609527 -0.622840 0.841972
v -0.598016 -0.622840 0.841972
v -0.585940 -0.631449 0.833362
v 0.597451 -0.880460 1.024436
v 0.609527 -0.874373 1.034980
v -0.598016 -0.874373 1.034980
v -0.585940 -0.880460 1.024436
v 0.597451 -1.170439 1.144549
v 0.609527 -1.167288 1.156308
v -0.598016 -1.167288 1.156308
v -0.585940 -1.170439 1.144549
v 0.597451 -1.493571 1.191604
v 0.609527 -1.469551 1.201162
v -0.598016 -1.469551 1.201162
v -0.585940 -1.493571 1.191604
v -0.598016 -1.469552 -1.234792
v -0.585940 -1.493573 -1.225234
v 0.597451 -1.493573 -1.225234
v 0.609527 -1.469552 -1.234792
v 0.609527 -1.469552 -1.814360
v 0.597451 -1.493600 -1.828910
v -0.598016 -1.469551 1.780730
v -0.585940 -1.493599 1.795281
v -0.610091 -1.481626 1.782424
vn -0.3738 0.9275 -0.0000
vn 0.3738 0.8959 0.2401
vn 0.3738 0.9275 -0.0000
vn -0.9356 -0.3057 0.1765
vn -0.9134 0.3933 -0.1054
vn -0.9134 0.3526 -0.2036
vn -0.9134 0.2879 -0.2879
vn -0.9134 0.2036 -0.3526
vn -0.9356 -0.2496 0.2496
vn -0.9134 0.1054 -0.3933
vn -0.9356 -0.1765 0.3057
vn 0.3738 0.8959 -0.2401
vn -0.3738 0.8033 -0.4638
vn -0.3738 0.8959 -0.2401
vn -0.9356 -0.3530 -0.0000
vn -0.9134 0.3933 0.1054
vn -0.9134 0.4072 -0.0000
vn -0.9017 -0.0623 0.4278
vn -0.7586 0.1570 -0.6324
vn -0.9356 -0.3057 -0.1765
vn -0.9134 0.3526 0.2036
vn -0.9134 0.2879 0.2879
vn -0.3735 0.2396 0.8961
vn 0.2121 0.1872 0.9591
vn 0.3735 0.2396 0.8961
vn -0.9356 -0.2496 -0.2496
vn -0.9134 0.2036 0.3526
vn 0.3964 -0.8868 -0.2376
vn -0.3964 -0.9181 -0.0000
vn 0.3964 -0.9181 -0.0000
vn -0.3960 -0.2444 0.8851
vn 0.3964 -0.4590 0.7951
vn -0.3964 -0.4590 0.7951
vn 0.3964 -0.6492 0.6492
vn -0.3964 -0.6492 0.6492
vn 0.3964 -0.7951 -0.4590
vn -0.3964 -0.8868 -0.2376
vn -0.2342 -0.1401 0.9620
vn 0.3960 -0.2444 0.8851
vn 0.3964 -0.7951 0.4590
vn -0.3964 -0.7951 0.4590
vn 0.3964 -0.8868 0.2376
vn -0.3964 -0.8868 0.2376
vn 0.3964 -0.6492 -0.6492
vn -0.3964 -0.7951 -0.4590
vn 0.3964 -0.4590 -0.7951
vn -0.3964 -0.6492 -0.6492
vn 0.3960 -0.2444 -0.8851
vn -0.3964 -0.4590 -0.7951
vn 0.2342 -0.1401 -0.9620
vn -0.3960 -0.2444 -0.8851
vn 0.9017 -0.0623 -0.4278
vn 0.9134 0.1054 0.3933
vn 0.7586 0.1570 0.6324
vn 0.3738 0.4638 -0.8033
vn -0.3735 0.2396 -0.8961
vn -0.3738 0.4638 -0.8033
vn -0.3738 0.8033 0.4638
vn 0.3738 0.6559 0.6559
vn 0.3738 0.8033 0.4638
vn 0.9134 0.3526 0.2036
vn 0.9356 -0.3410 -0.0914
vn 0.9134 0.3933 0.1054
vn 0.9356 -0.3057 0.1765
vn 0.9134 0.2879 -0.2879
vn 0.9134 0.3526 -0.2036
vn 0.3738 0.8033 -0.4638
vn -0.3738 0.6559 -0.6559
vn -0.9356 -0.1765 -0.3057
vn -0.9134 0.1054 0.3933
vn -0.3738 0.4638 0.8033
vn 0.3738 0.4638 0.8033
vn 0.9356 -0.1765 -0.3057
vn 0.9134 0.2036 0.3526
vn 0.9356 -0.3530 -0.0000
vn 0.9134 0.3933 -0.1054
vn 0.9134 0.4072 -0.0000
vn -0.3738 0.6559 0.6559
vn 0.9134 0.2879 0.2879
vn 0.9356 -0.3057 -0.1765
vn 0.9134 0.1054 -0.3933
vn 0.9017 -0.0623 0.4278
vn 0.8629 0.0652 -0.5012
vn 0.3738 0.6559 -0.6559
vn -0.3738 0.8959 0.2401
vn 0.9356 -0.1765 0.3057
vn 0.9134 0.2036 -0.3526
vn 0.9356 -0.3410 0.0914
vn 0.3735 0.2396 -0.8961
vn -0.2121 0.1872 -0.9591
vn -0.9017 -0.0623 -0.4278
vn -0.7586 0.1570 0.6324
vn 0.9356 -0.2496 -0.2496
vn 0.9356 -0.2496 0.2496
vn -0.2716 0.3947 -0.8777
vn 0.2716 0.3947 0.8777
vn -0.2716 0.3947 0.8777
vn -0.2121 0.1872 0.9592
vn -0.9356 -0.3410 0.0914
vn -0.9349 -0.0945 0.3420
vn 0.9349 -0.0945 0.3420
vn -0.9356 -0.3410 -0.0914
vn 0.9349 -0.0945 -0.3420
vn -0.9349 -0.0945 -0.3420
vn 0.1932 0.1265 -0.9730
vn 0.2342 -0.1401 0.9620
vn -0.2342 -0.1401 -0.9620
vt 0.329628 0.706188
vt 0.447498 0.660137
vt 0.447137 0.707090
vt 0.112298 0.465165
vt 0.043936 0.478111
vt 0.062484 0.435360
vt 0.091394 0.398848
vt 0.128655 0.370993
vt 0.131907 0.440457
vt 0.171718 0.353577
vt 0.157238 0.421603
vt 0.446777 0.754044
vt 0.328906 0.800095
vt 0.329266 0.753141
vt 0.095079 0.525244
vt 0.042293 0.570530
vt 0.037046 0.524213
vt 0.216591 0.404811
vt 0.216582 0.347252
vt 0.110153 0.585898
vt 0.059310 0.613912
vt 0.086904 0.651430
vt 0.331431 0.471420
vt 0.449310 0.424180
vt 0.448940 0.472323
vt 0.128869 0.611287
vt 0.123151 0.680591
vt 0.807572 0.577684
vt 0.924942 0.609383
vt 0.807430 0.608851
vt 0.924237 0.765222
vt 0.806867 0.733523
vt 0.924379 0.734054
vt 0.807007 0.702355
vt 0.924519 0.702886
vt 0.807711 0.546516
vt 0.925083 0.578215
vt 0.924091 0.797648
vt 0.806725 0.764691
vt 0.807148 0.671187
vt 0.924660 0.671719
vt 0.807288 0.640019
vt 0.924802 0.640551
vt 0.807853 0.515348
vt 0.925223 0.547047
vt 0.807995 0.484180
vt 0.925365 0.515879
vt 0.808135 0.453012
vt 0.925507 0.484711
vt 0.808281 0.420586
vt 0.925647 0.453544
vt 0.456855 0.930425
vt 0.502309 0.981148
vt 0.457519 0.987981
vt 0.445695 0.894904
vt 0.327824 0.940955
vt 0.328185 0.894002
vt 0.330350 0.612280
vt 0.448219 0.566230
vt 0.447858 0.613183
vt 0.610608 0.898132
vt 0.572690 0.839841
vt 0.628672 0.855175
vt 0.561239 0.748145
vt 0.583742 0.682355
vt 0.611762 0.719557
vt 0.446416 0.800997
vt 0.328545 0.847048
vt 0.153515 0.631030
vt 0.165567 0.699528
vt 0.331071 0.518374
vt 0.448579 0.519276
vt 0.516016 0.912962
vt 0.545170 0.963245
vt 0.576998 0.808624
vt 0.629268 0.762744
vt 0.635040 0.808998
vt 0.330710 0.565327
vt 0.582112 0.934970
vt 0.560459 0.868894
vt 0.504541 0.635151
vt 0.458438 0.685282
vt 0.459844 0.627741
vt 0.446055 0.847951
vt 0.329989 0.659234
vt 0.517368 0.703508
vt 0.547168 0.653606
vt 0.573093 0.777354
vt 0.445334 0.941858
vt 0.327455 0.989097
vt 0.212234 0.649921
vt 0.210177 0.707443
vt 0.541134 0.893822
vt 0.542235 0.722970
vt 0.821440 0.077733
vt 0.824414 0.077588
vt 0.821891 0.079447
vt 0.441097 0.033238
vt 0.440935 0.030276
vt 0.442807 0.032784
vt 0.422445 0.091649
vt 0.424154 0.092115
vt 0.422276 0.094623
vt 0.636741 0.809009
vt 0.630914 0.762316
vt 0.042299 0.477644
vt 0.035345 0.524183
vt 0.061023 0.434487
vt 0.613242 0.718719
vt 0.090205 0.397629
vt 0.584960 0.681165
vt 0.127817 0.369510
vt 0.548043 0.652143
vt 0.171283 0.351939
vt 0.505015 0.633524
vt 0.218898 0.345259
vt 0.630313 0.855624
vt 0.040641 0.570939
vt 0.612078 0.898989
vt 0.057820 0.614733
vt 0.583315 0.936176
vt 0.085673 0.652606
vt 0.546025 0.964719
vt 0.122260 0.682044
vt 0.502761 0.982781
vt 0.165075 0.701149
vt 0.455224 0.990000
vt 0.571447 0.777782
vt 0.101376 0.494546
vt 0.099740 0.494078
vt 0.113759 0.466039
vt 0.559757 0.748984
vt 0.133092 0.441678
vt 0.541020 0.724162
vt 0.186555 0.409743
vt 0.158076 0.423088
vt 0.487858 0.692584
vt 0.488346 0.690940
vt 0.571050 0.839391
vt 0.096779 0.525275
vt 0.098630 0.556557
vt 0.100281 0.556147
vt 0.539932 0.892615
vt 0.111643 0.585076
vt 0.130099 0.610109
vt 0.486368 0.923504
vt 0.486834 0.925154
vt 0.154404 0.629575
vt 0.182393 0.643925
vt 0.182898 0.642287
vt 0.457575 0.625692
vt 0.212421 0.709517
vt 0.187003 0.411398
vt 0.331800 0.423278
vt 0.806579 0.797117
vt 0.925793 0.421118
vt 0.444964 0.990000
vt 0.575298 0.808613
vt 0.516494 0.704973
vt 0.558990 0.868037
vt 0.515162 0.911486
vt 0.454379 0.929092
vt 0.214743 0.648648
vt 0.455945 0.686583
vt 0.219053 0.406172
s 1
usemtl doorD
f 1/1/1 32/2/2 27/3/3
f 62/4/4 16/5/5 18/6/6
f 20/7/7 62/4/4 18/6/6
f 22/8/8 66/9/9 20/7/7
f 24/10/10 70/11/11 22/8/8
f 49/12/12 19/13/13 17/14/14
f 57/15/15 12/16/16 2/17/17
f 99/18/18 24/10/10 13/19/19
f 12/16/16 81/20/20 10/21/21
f 81/20/20 8/22/22 10/21/21
f 3/23/23 30/24/24 40/25/25
f 85/26/26 6/27/27 8/22/22
f 75/28/28 58/29/29 51/30/30
f 73/31/31 72/32/32 69/33/33
f 69/33/33 68/34/34 65/35/35
f 79/36/36 78/37/37 75/28/28
f 100/38/38 60/39/39 73/31/31
f 65/35/35 64/40/40 61/41/41
f 61/41/41 54/42/42 55/43/43
f 83/44/44 82/45/45 79/36/36
f 87/46/46 86/47/47 83/44/44
f 91/48/48 90/49/49 87/46/46
f 95/50/50 94/51/51 91/48/48
f 96/52/52 39/53/53 28/54/54
f 43/55/55 25/56/56 23/57/57
f 9/58/58 36/59/59 34/60/60
f 33/61/61 76/62/62 31/63/63
f 63/64/64 46/65/65 48/66/66
f 47/67/67 21/68/68 19/13/13
f 89/69/69 4/70/70 6/27/27
f 5/71/71 40/25/25 38/72/72
f 39/53/53 88/73/73 37/74/74
f 55/43/43 51/30/30 58/29/29
f 52/75/75 50/76/76 26/77/77
f 7/78/78 38/72/72 36/59/59
f 35/79/79 80/80/80 33/61/61
f 31/63/63 52/75/75 26/77/77
f 42/81/81 102/82/82 103/83/83
f 45/84/84 23/57/57 21/68/68
f 11/85/85 34/60/60 32/2/2
f 27/3/3 17/14/14 1/1/1
f 71/86/86 42/81/81 44/87/87
f 53/88/88 48/66/66 50/76/76
f 41/89/89 15/90/90 25/56/56
f 4/70/70 97/91/91 105/92/92
f 37/74/74 84/93/93 35/79/79
f 67/94/94 44/87/87 46/65/65
f 16/5/5 57/15/15 2/17/17
f 13/95/19 15/96/90 14/97/95
f 28/98/54 30/99/24 29/100/96
f 105/101/92 107/102/97 106/103/98
f 27/104/3 50/76/76 49/105/12
f 17/106/14 2/17/17 1/107/1
f 19/108/13 16/5/5 17/106/14
f 49/105/12 48/66/66 47/109/67
f 21/110/68 18/6/6 19/108/13
f 48/66/66 45/111/84 47/109/67
f 22/8/8 21/110/68 23/112/57
f 46/65/65 43/113/55 45/111/84
f 24/10/10 23/112/57 25/114/56
f 44/87/87 41/115/89 43/113/55
f 13/19/19 25/114/56 15/116/90
f 31/63/63 27/104/3 32/117/2
f 2/17/17 11/118/85 1/107/1
f 33/61/61 32/117/2 34/119/60
f 12/16/16 9/120/58 11/118/85
f 35/79/79 34/119/60 36/121/59
f 9/120/58 8/22/22 7/122/78
f 37/74/74 36/121/59 38/123/72
f 8/22/22 5/124/71 7/122/78
f 40/125/25 37/74/74 38/123/72
f 6/27/27 3/126/23 5/124/71
f 28/54/54 40/125/25 30/127/24
f 52/75/75 54/128/42 53/88/88
f 55/129/43 57/15/15 56/130/99
f 61/131/41 56/130/99 62/4/4
f 53/88/88 64/132/40 63/64/64
f 66/9/9 61/131/41 62/4/4
f 64/132/40 67/94/94 63/64/64
f 70/11/11 65/133/35 66/9/9
f 68/134/34 71/86/86 67/94/94
f 74/135/100 69/136/33 70/11/11
f 71/86/86 60/137/39 59/138/101
f 75/139/28 52/75/75 76/62/62
f 58/140/29 77/141/102 57/15/15
f 80/80/80 75/139/28 76/62/62
f 78/142/37 81/20/20 77/141/102
f 83/143/44 80/80/80 84/93/93
f 82/144/45 85/26/26 81/20/20
f 88/73/73 83/143/44 84/93/93
f 86/145/47 89/69/69 85/26/26
f 91/146/48 88/73/73 92/147/103
f 90/148/49 93/149/104 89/69/69
f 96/52/52 91/146/48 92/147/103
f 94/150/51 97/91/91 93/149/104
f 41/115/89 103/83/83 104/151/105
f 3/126/23 105/92/92 106/152/98
f 60/137/39 102/82/82 59/138/101
f 99/18/18 73/153/31 74/135/100
f 1/1/1 11/85/85 32/2/2
f 62/4/4 56/130/99 16/5/5
f 20/7/7 66/9/9 62/4/4
f 22/8/8 70/11/11 66/9/9
f 24/10/10 74/135/100 70/11/11
f 49/12/12 47/67/67 19/13/13
f 57/15/15 77/141/102 12/16/16
f 99/18/18 74/135/100 24/10/10
f 12/16/16 77/141/102 81/20/20
f 81/20/20 85/26/26 8/22/22
f 3/23/23 106/154/98 30/24/24
f 85/26/26 89/69/69 6/27/27
f 75/28/28 78/37/37 58/29/29
f 73/31/31 60/39/39 72/32/32
f 69/33/33 72/32/32 68/34/34
f 79/36/36 82/45/45 78/37/37
f 100/38/38 101/155/106 60/39/39
f 65/35/35 68/34/34 64/40/40
f 61/41/41 64/40/40 54/42/42
f 83/44/44 86/47/47 82/45/45
f 87/46/46 90/49/49 86/47/47
f 91/48/48 94/51/51 90/49/49
f 95/50/50 98/156/107 94/51/51
f 96/52/52 92/147/103 39/53/53
f 43/55/55 41/89/89 25/56/56
f 9/58/58 7/78/78 36/59/59
f 33/61/61 80/80/80 76/62/62
f 63/64/64 67/94/94 46/65/65
f 47/67/67 45/84/84 21/68/68
f 89/69/69 93/149/104 4/70/70
f 5/71/71 3/23/23 40/25/25
f 39/53/53 92/147/103 88/73/73
f 55/43/43 54/42/42 51/30/30
f 52/75/75 53/88/88 50/76/76
f 7/78/78 5/71/71 38/72/72
f 35/79/79 84/93/93 80/80/80
f 31/63/63 76/62/62 52/75/75
f 42/81/81 59/138/101 102/82/82
f 45/84/84 43/55/55 23/57/57
f 11/85/85 9/58/58 34/60/60
f 27/3/3 49/12/12 17/14/14
f 71/86/86 59/138/101 42/81/81
f 53/88/88 63/64/64 48/66/66
f 41/89/89 104/157/105 15/90/90
f 4/70/70 93/149/104 97/91/91
f 37/74/74 88/73/73 84/93/93
f 67/94/94 71/86/86 44/87/87
f 16/5/5 56/130/99 57/15/15
f 27/104/3 26/77/77 50/76/76
f 17/106/14 16/5/5 2/17/17
f 19/108/13 18/6/6 16/5/5
f 49/105/12 50/76/76 48/66/66
f 21/110/68 20/7/7 18/6/6
f 48/66/66 46/65/65 45/111/84
f 22/8/8 20/7/7 21/110/68
f 46/65/65 44/87/87 43/113/55
f 24/10/10 22/8/8 23/112/57
f 44/87/87 42/81/81 41/115/89
f 13/19/19 24/10/10 25/114/56
f 31/63/63 26/77/77 27/104/3
f 2/17/17 12/16/16 11/118/85
f 33/61/61 31/63/63 32/117/2
f 12/16/16 10/21/21 9/120/58
f 35/79/79 33/61/61 34/119/60
f 9/120/58 10/21/21 8/22/22
f 37/74/74 35/79/79 36/121/59
f 8/22/22 6/27/27 5/124/71
f 40/125/25 39/53/53 37/74/74
f 6/27/27 4/70/70 3/126/23
f 28/54/54 39/53/53 40/125/25
f 52/75/75 51/158/30 54/128/42
f 55/129/43 58/140/29 57/15/15
f 61/131/41 55/129/43 56/130/99
f 53/88/88 54/128/42 64/132/40
f 66/9/9 65/133/35 61/131/41
f 64/132/40 68/134/34 67/94/94
f 70/11/11 69/136/33 65/133/35
f 68/134/34 72/159/32 71/86/86
f 74/135/100 73/153/31 69/136/33
f 71/86/86 72/159/32 60/137/39
f 75/139/28 51/158/30 52/75/75
f 58/140/29 78/142/37 77/141/102
f 80/80/80 79/160/36 75/139/28
f 78/142/37 82/144/45 81/20/20
f 83/143/44 79/160/36 80/80/80
f 82/144/45 86/145/47 85/26/26
f 88/73/73 87/161/46 83/143/44
f 86/145/47 90/148/49 89/69/69
f 91/146/48 87/161/46 88/73/73
f 90/148/49 94/150/51 93/149/104
f 96/52/52 95/162/50 91/146/48
f 94/150/51 98/163/107 97/91/91
f 41/115/89 42/81/81 103/83/83
f 3/126/23 4/70/70 105/92/92
f 60/137/39 101/164/106 102/82/82
f 99/18/18 100/165/38 73/153/31
