# 3ds Max Wavefront OBJ Exporter v0.99 - (c)2007 guruware
# File Created: 17.03.2025 17:27:45

#
# object Capo
#

v  -0.0174 -0.0758 -0.9192
v  0.0980 -0.0766 -0.9363
v  0.0209 -0.1129 -0.9619
v  0.0562 -0.0239 -0.8291
v  0.1846 -0.0337 -0.8919
v  0.1127 -0.0186 -0.8340
v  0.0430 -0.0063 -0.6993
v  -0.0378 0.0093 -0.2658
v  -0.5153 -0.0178 -0.0805
v  -0.0436 0.0097 -0.0813
v  -0.4989 -0.0194 -0.2288
v  -0.0263 0.0059 -0.4118
v  -0.4897 -0.0260 -0.3612
v  -0.4898 -0.0332 -0.5078
v  0.0031 0.0015 -0.5741
v  -0.2770 -0.0447 -0.7702
v  -0.4956 -0.0551 -0.7249
v  -0.5051 -0.0854 -0.8331
v  -0.3206 -0.0787 -0.8697
v  -0.1392 -0.0355 -0.7974
v  -0.0415 -0.0297 -0.8146
v  -0.1328 -0.0751 -0.9021
v  -0.0552 -0.1326 -0.9819
v  -0.9961 -0.1802 0.7639
v  -0.9548 -0.1754 0.7820
v  -0.8800 -0.1123 0.5944
v  -1.0373 -0.1849 0.7458
v  -0.9640 -0.1273 0.5666
v  -0.8473 -0.0847 0.4931
v  -0.9443 -0.1032 0.4624
v  -0.9702 -0.0942 0.2966
v  -0.7650 -0.0602 0.3280
v  -0.7505 -0.0718 0.5238
v  -0.4898 -0.0332 0.3703
v  -0.4956 -0.0551 0.5874
v  -0.2770 -0.0447 0.6327
v  0.0031 0.0015 0.4366
v  -0.1392 -0.0355 0.6608
v  -0.3206 -0.0787 0.7331
v  -0.5051 -0.0854 0.6965
v  -0.6963 -0.0944 0.6509
v  -0.7440 -0.1604 0.8146
v  -0.8588 -0.1667 0.8051
v  -0.9068 -0.1711 0.7936
v  -0.6406 -0.1563 0.8240
v  -0.5217 -0.1531 0.8326
v  -0.4028 -0.1498 0.8412
v  -0.3049 -0.1482 0.8477
v  -0.2068 -0.1438 0.8542
v  -0.1328 -0.0751 0.7655
v  -0.0415 -0.0297 0.6780
v  0.0430 -0.0063 0.5627
v  0.0209 -0.1129 0.8253
v  -0.0174 -0.0758 0.7826
v  -0.0552 -0.1326 0.8453
v  0.0980 -0.0766 0.7997
v  0.0562 -0.0239 0.6925
v  0.1846 -0.0337 0.7553
v  0.1127 -0.0186 0.6974
v  -0.0378 0.0093 0.1032
v  -0.4989 -0.0194 0.0670
v  -0.7775 -0.0490 0.0678
v  -0.7937 -0.0446 -0.0805
v  -0.9849 -0.0801 0.0743
v  -1.0012 -0.0758 -0.0740
v  -1.1498 -0.1151 0.0875
v  -1.1660 -0.1107 -0.0692
v  -1.2901 -0.1677 0.1043
v  -1.3065 -0.1662 -0.0692
v  -1.2901 -0.1677 -0.2427
v  -1.1498 -0.1151 -0.2259
v  -0.9849 -0.0801 -0.2175
v  -0.7775 -0.0490 -0.2288
v  -0.7677 -0.0556 -0.3457
v  -0.7650 -0.0602 -0.4657
v  -0.7505 -0.0718 -0.6613
v  -0.6963 -0.0944 -0.7875
v  -0.6406 -0.1563 -0.9606
v  -0.5217 -0.1531 -0.9692
v  -0.4028 -0.1498 -0.9778
v  -0.3049 -0.1482 -0.9843
v  -0.2068 -0.1438 -0.9908
v  -0.9068 -0.1711 -0.9302
v  -0.9548 -0.1754 -0.9186
v  -0.8800 -0.1123 -0.7310
v  -0.8588 -0.1667 -0.9417
v  -0.7440 -0.1604 -0.9512
v  -0.8473 -0.0847 -0.6306
v  -0.9702 -0.0942 -0.4350
v  -0.9443 -0.1032 -0.5998
v  -0.9640 -0.1273 -0.7032
v  -1.0373 -0.1849 -0.8824
v  -0.9961 -0.1802 -0.9005
v  -1.0708 -0.1900 -0.8545
v  -1.1044 -0.1952 -0.8266
v  -1.0481 -0.1423 -0.6754
v  -1.0558 -0.1236 -0.5592
v  -1.1387 -0.1290 -0.4101
v  -1.1676 -0.1497 -0.5186
v  -1.1258 -0.1618 -0.6419
v  -1.1741 -0.2110 -0.7428
v  -1.1392 -0.2031 -0.7842
v  -1.2069 -0.2190 -0.6993
v  -1.2396 -0.2270 -0.6558
v  -1.2039 -0.1883 -0.6075
v  -1.2622 -0.1851 -0.4769
v  -1.3212 -0.2393 -0.5432
v  -1.2933 -0.2408 -0.5868
v  -1.2664 -0.2339 -0.6213
v  -1.3633 -0.2369 -0.4344
v  -1.3572 -0.2261 -0.4188
v  -1.2745 -0.1791 -0.4031
v  -1.3563 -0.2149 -0.3461
v  -1.2795 -0.1743 -0.3416
v  -1.3637 -0.2089 -0.2538
v  -1.2664 -0.2339 0.4829
v  -1.2396 -0.2270 0.5174
v  -1.2039 -0.1883 0.4691
v  -1.2933 -0.2408 0.4484
v  -1.3212 -0.2393 0.4048
v  -1.2622 -0.1851 0.3385
v  -1.1676 -0.1497 0.3811
v  -1.1258 -0.1618 0.5035
v  -1.0558 -0.1236 0.4217
v  -1.1387 -0.1290 0.2717
v  -1.0481 -0.1423 0.5379
v  -1.1741 -0.2110 0.6044
v  -1.2069 -0.2190 0.5609
v  -1.1392 -0.2031 0.6476
v  -1.1044 -0.1952 0.6900
v  -1.0708 -0.1900 0.7179
v  -0.9748 -0.0867 0.1910
v  -1.1394 -0.1217 0.1862
v  -1.2795 -0.1743 0.2032
v  -1.3563 -0.2149 0.2077
v  -1.3637 -0.2089 0.1154
v  -1.3735 -0.2084 0.0406
v  -1.3836 -0.2106 -0.0110
v  -1.3836 -0.2106 -0.1274
v  -1.3735 -0.2084 -0.1790
v  -1.3633 -0.2369 0.2960
v  -1.3572 -0.2261 0.2804
v  -1.2745 -0.1791 0.2647
v  -0.7677 -0.0556 0.1959
v  -0.4897 -0.0260 0.2123
v  -0.0263 0.0059 0.2622
v  -1.1394 -0.1217 -0.3246
v  -0.9748 -0.0867 -0.3342
# 148 vertices

vn -0.0723 0.8292 -0.5543
vn -0.1188 0.8422 -0.5260
vn -0.0631 0.7244 -0.6865
vn -0.1060 0.9475 -0.3017
vn -0.1630 0.8678 -0.4695
vn -0.1157 0.9408 -0.3187
vn -0.0976 0.9883 -0.1170
vn -0.0621 0.9979 -0.0183
vn -0.0839 0.9965 0.0000
vn -0.0582 0.9983 -0.0000
vn -0.0870 0.9955 -0.0365
vn -0.0715 0.9967 -0.0384
vn -0.0903 0.9946 -0.0518
vn -0.0878 0.9936 -0.0715
vn -0.0875 0.9930 -0.0798
vn -0.0951 0.9766 -0.1929
vn -0.0963 0.9790 -0.1798
vn -0.1091 0.9349 -0.3377
vn -0.0908 0.9094 -0.4059
vn -0.0974 0.9684 -0.2297
vn -0.0913 0.9574 -0.2738
vn -0.0773 0.8697 -0.4876
vn -0.0472 0.7727 -0.6330
vn 0.1486 0.8193 -0.5538
vn -0.1825 0.9516 0.2473
vn -0.1963 0.9535 0.2287
vn -0.2536 0.9450 0.2066
vn -0.2410 0.9504 0.1964
vn -0.1932 0.9724 0.1305
vn -0.2241 0.9657 0.1308
vn -0.1912 0.9788 0.0739
vn -0.1380 0.9891 0.0518
vn -0.1393 0.9783 0.1537
vn -0.0876 0.9937 0.0698
vn -0.0961 0.9792 0.1788
vn -0.0954 0.9769 0.1914
vn -0.0875 0.9931 0.0783
vn -0.0977 0.9684 0.2293
vn -0.0909 0.9098 0.4050
vn -0.1089 0.9353 0.3368
vn -0.1338 0.9493 0.2845
vn -0.1020 0.9430 0.3166
vn -0.1058 0.9602 0.2585
vn -0.0905 0.9959 0.0006
vn -0.0869 0.9190 0.3846
vn -0.0752 0.8889 0.4518
vn -0.0567 0.8534 0.5182
vn -0.0620 0.8496 0.5238
vn -0.0746 0.8264 0.5580
vn -0.0773 0.8697 0.4876
vn -0.0913 0.9574 0.2738
vn -0.0978 0.9883 0.1167
vn -0.0631 0.7244 0.6865
vn -0.0723 0.8292 0.5543
vn -0.0472 0.7727 0.6330
vn -0.1188 0.8422 0.5260
vn -0.1060 0.9475 0.3017
vn -0.1630 0.8678 0.4695
vn -0.1157 0.9408 0.3187
vn -0.0619 0.9979 0.0170
vn -0.0867 0.9956 0.0342
vn -0.1246 0.9909 0.0505
vn -0.1241 0.9923 -0.0007
vn -0.1754 0.9826 0.0604
vn -0.1790 0.9838 -0.0007
vn -0.2726 0.9593 0.0740
vn -0.2874 0.9578 0.0004
vn -0.4100 0.9087 0.0783
vn -0.4275 0.9040 -0.0000
vn -0.4100 0.9087 -0.0783
vn -0.2737 0.9590 -0.0741
vn -0.1784 0.9821 -0.0611
vn -0.1265 0.9905 -0.0533
vn -0.1326 0.9896 -0.0560
vn -0.1381 0.9890 -0.0536
vn -0.1395 0.9781 -0.1546
vn -0.1340 0.9490 -0.2853
vn -0.0869 0.9190 -0.3846
vn -0.0752 0.8889 -0.4518
vn -0.0567 0.8534 -0.5182
vn -0.0620 0.8496 -0.5238
vn -0.0746 0.8264 -0.5580
vn -0.0905 0.9959 -0.0006
vn -0.1825 0.9516 -0.2473
vn -0.1965 0.9533 -0.2294
vn -0.1058 0.9602 -0.2585
vn -0.1020 0.9430 -0.3166
vn -0.1934 0.9723 -0.1314
vn -0.1917 0.9785 -0.0763
vn -0.2242 0.9656 -0.1315
vn -0.2405 0.9504 -0.1973
vn -0.2536 0.9450 -0.2066
vn 0.1486 0.8193 0.5538
vn -0.1205 -0.9402 -0.3185
vn -0.3292 0.9261 -0.1841
vn -0.2849 0.9367 -0.2035
vn -0.2489 0.9592 -0.1343
vn -0.2816 0.9555 -0.0876
vn -0.3461 0.9248 -0.1582
vn -0.3628 0.9035 -0.2282
vn -0.4180 0.8866 -0.1980
vn 0.2174 -0.9761 -0.0027
vn 0.8054 -0.0444 0.5911
vn -0.4917 0.8328 -0.2543
vn -0.4534 0.8485 -0.2729
vn -0.4435 0.8774 -0.1826
vn -0.5095 0.8116 -0.2858
vn -0.5338 0.7744 -0.3397
vn 0.0510 -0.9861 -0.1583
vn -0.5163 0.8282 -0.2178
vn -0.5032 0.8348 -0.2236
vn -0.5369 0.7764 -0.3300
vn -0.4133 0.9031 -0.1167
vn -0.4671 0.8772 -0.1114
vn -0.3999 0.9107 -0.1033
vn -0.4776 0.8747 -0.0825
vn 0.0510 -0.9861 0.1583
vn -0.4917 0.8328 0.2543
vn -0.4538 0.8481 0.2734
vn -0.5338 0.7744 0.3397
vn -0.5125 0.8185 0.2595
vn -0.4570 0.8692 0.1889
vn -0.3468 0.9244 0.1587
vn -0.3638 0.9031 0.2282
vn -0.2492 0.9591 0.1343
vn -0.2812 0.9557 0.0869
vn -0.2867 0.9364 0.2023
vn -0.4196 0.8863 0.1959
vn 0.8054 -0.0444 -0.5911
vn -0.2245 0.9745 0.0035
vn -0.3291 0.9263 0.1836
vn -0.1205 -0.9402 0.3185
vn -0.1792 0.9810 0.0741
vn -0.2731 0.9579 0.0881
vn -0.3999 0.9107 0.1033
vn -0.4671 0.8772 0.1114
vn -0.4776 0.8747 0.0825
vn -0.4721 0.8797 0.0572
vn -0.4789 0.8771 0.0358
vn -0.4789 0.8771 -0.0358
vn -0.4721 0.8797 -0.0572
vn -0.5297 0.7986 0.2857
vn -0.5032 0.8348 0.2236
vn -0.4134 0.9031 0.1166
vn -0.1317 0.9900 0.0514
vn -0.0900 0.9948 0.0475
vn -0.0711 0.9968 0.0357
vn -0.2742 0.9576 -0.0882
vn -0.1818 0.9804 -0.0763
# 149 vertex normals

vt -71.8977 -16.1916 0.0000
vt -76.4787 -15.8839 0.0000
vt -73.7789 -18.1146 0.0000
vt -76.5328 -31.1173 0.0000
vt -79.2299 -35.3065 0.0000
vt -74.6621 -35.7719 0.0000
vt -86.1752 -13.3359 0.0000
vt -91.8126 -13.5415 0.0000
vt -89.5104 -17.0372 0.0000
vt -91.3133 -22.2443 0.0000
vt -85.6783 -21.9831 0.0000
vt -87.7822 -21.1997 0.0000
vt -92.3740 6.9166 0.0000
vt -98.1620 5.3704 0.0000
vt -96.5344 3.8241 0.0000
vt -54.4725 59.8820 0.0000
vt -46.6268 41.2855 0.0000
vt -47.2051 59.8820 0.0000
vt -50.5442 35.9529 0.0000
vt -60.4714 53.5267 0.0000
vt -56.4150 35.7372 0.0000
vt -69.8992 48.4291 0.0000
vt -58.4149 31.8649 0.0000
vt -63.6872 49.3327 0.0000
vt -61.7993 23.4264 0.0000
vt -75.6416 38.0773 0.0000
vt -67.2723 21.7018 0.0000
vt -75.5684 38.2411 0.0000
vt -72.6025 19.7786 0.0000
vt -67.2359 21.8468 0.0000
vt -71.5830 24.2053 0.0000
vt -73.3992 42.8161 0.0000
vt -79.8465 42.0095 0.0000
vt -86.7071 -1.1405 0.0000
vt -73.3990 -1.1859 0.0000
vt -87.5493 12.4173 0.0000
vt -73.4034 -2.1260 0.0000
vt -86.7115 -2.0743 0.0000
vt -79.9458 -7.6975 0.0000
vt -69.5988 -27.3314 0.0000
vt -77.8964 -24.4081 0.0000
vt -71.4853 -31.3510 0.0000
vt -75.2019 -28.0620 0.0000
vt -75.4896 -32.5335 0.0000
vt -68.3759 -34.5973 0.0000
vt -78.8750 -21.2932 0.0000
vt -84.0293 -19.2483 0.0000
vt -79.5440 -25.7237 0.0000
vt -86.9152 1.1382 0.0000
vt -87.3996 14.7135 0.0000
vt -91.0432 4.8406 0.0000
vt -86.0388 24.9590 0.0000
vt -91.0838 23.7844 0.0000
vt -90.7775 15.5624 0.0000
vt -89.7732 -6.6605 0.0000
vt -92.0939 1.2331 0.0000
vt -92.9686 -4.4052 0.0000
vt -91.8970 -0.8304 0.0000
vt -95.8155 -4.2242 0.0000
vt -92.6467 -6.4867 0.0000
vt -80.0660 -23.7681 0.0000
vt -83.8371 -22.7990 0.0000
vt -82.5392 -27.6447 0.0000
vt -73.4084 -34.2244 0.0000
vt -75.4371 -38.3510 0.0000
vt -70.8748 -38.8668 0.0000
vt -67.9176 -22.7347 0.0000
vt -72.4965 -22.3967 0.0000
vt -71.6598 -25.9457 0.0000
vt -64.4635 -26.6684 0.0000
vt -66.1918 -28.7299 0.0000
vt -63.3228 -30.1317 0.0000
vt 3.4845 34.2073 0.0000
vt 5.0881 34.9871 0.0000
vt 1.4345 42.4739 0.0000
vt 1.8809 33.4274 0.0000
vt -1.7813 42.5497 0.0000
vt -4.5784 40.3870 0.0000
vt -0.4544 33.5899 0.0000
vt -5.6439 45.4114 0.0000
vt -5.7294 39.7449 0.0000
vt -3.0158 42.0115 0.0000
vt -6.7633 45.2180 0.0000
vt -9.7657 42.4657 0.0000
vt -6.6720 39.5515 0.0000
vt -14.4639 41.0248 0.0000
vt -23.3039 38.7326 0.0000
vt -16.7754 37.6712 0.0000
vt -24.7730 36.0942 0.0000
vt -16.0592 38.8271 0.0000
vt -21.5204 43.7101 0.0000
vt -11.6946 42.5570 0.0000
vt -19.1889 44.5084 0.0000
vt -14.0488 39.2884 0.0000
vt -9.3686 41.7762 0.0000
vt -11.0677 53.6637 0.0000
vt -16.7193 44.2135 0.0000
vt 5.6065 49.8422 0.0000
vt -1.3676 54.8628 0.0000
vt -2.0675 42.8748 0.0000
vt 15.9191 54.2674 0.0000
vt 2.6110 54.2157 0.0000
vt 9.1534 48.6442 0.0000
vt 2.6344 54.9760 0.0000
vt 15.9425 55.0213 0.0000
vt 16.7847 68.5792 0.0000
vt 15.1311 68.9921 0.0000
vt 14.6467 55.4168 0.0000
vt 18.7747 59.1191 0.0000
vt 36.1263 53.8803 0.0000
vt 30.9720 51.8355 0.0000
vt 31.6411 47.4049 0.0000
vt 34.7610 44.4722 0.0000
vt 34.4734 48.9438 0.0000
vt 27.6473 42.4085 0.0000
vt 31.9932 50.4214 0.0000
vt 23.6956 47.4981 0.0000
vt 25.5821 43.4786 0.0000
vt 20.6712 49.5655 0.0000
vt 11.0529 45.7025 0.0000
vt 22.8604 45.7025 0.0000
vt 22.8604 44.1973 0.0000
vt 11.0529 44.1973 0.0000
vt 15.6866 41.2746 0.0000
vt 11.5835 44.8244 0.0000
vt 6.6341 47.1730 0.0000
vt 4.7647 41.4692 0.0000
vt 1.3494 47.4056 0.0000
vt -1.9859 45.1470 0.0000
vt 0.2845 41.4984 0.0000
vt 14.6182 45.6180 0.0000
vt 7.5372 42.8589 0.0000
vt 17.0946 38.8580 0.0000
vt 21.5929 32.3088 0.0000
vt 12.8671 37.8955 0.0000
vt 17.3969 30.5750 0.0000
vt 11.1622 33.9110 0.0000
vt 12.9270 34.7453 0.0000
vt 7.1038 41.0856 0.0000
vt 9.3974 33.0768 0.0000
vt 28.3511 33.1330 0.0000
vt 23.9636 39.2930 0.0000
vt 24.3896 32.1063 0.0000
vt 27.8659 44.8871 0.0000
vt 20.3471 43.0235 0.0000
vt 25.4401 37.4328 0.0000
vt 34.7157 33.7717 0.0000
vt 33.9555 39.7431 0.0000
vt 30.0983 32.9186 0.0000
vt 37.7449 45.2706 0.0000
vt 30.4773 43.8405 0.0000
vt 31.9377 38.0007 0.0000
vt 39.8984 35.6735 0.0000
vt 42.0376 41.3169 0.0000
vt 35.2601 34.9419 0.0000
vt 44.1820 35.4391 0.0000
vt 42.6151 40.5164 0.0000
vt 40.3532 34.9210 0.0000
vt 47.1853 37.9310 0.0000
vt 41.6274 42.2309 0.0000
vt 43.3790 37.2143 0.0000
vt 47.7369 45.8625 0.0000
vt 40.2912 44.8990 0.0000
vt 46.0360 40.8522 0.0000
vt 45.6230 43.8339 0.0000
vt 43.8871 47.8928 0.0000
vt 38.2564 42.3843 0.0000
vt 44.3897 52.9732 0.0000
vt 40.6406 51.8589 0.0000
vt 42.7087 47.9588 0.0000
vt 28.0913 64.5612 0.0000
vt 25.7706 56.6675 0.0000
vt 28.9660 58.9229 0.0000
vt 12.9403 69.4296 0.0000
vt 7.8953 70.6042 0.0000
vt 12.6340 61.2076 0.0000
vt 58.2214 38.6922 0.0000
vt 56.4930 40.7537 0.0000
vt 55.3524 37.2904 0.0000
vt 58.9575 46.4168 0.0000
vt 54.3764 46.1091 0.0000
vt 56.2576 44.1861 0.0000
vt 57.9193 42.5588 0.0000
vt 55.2223 46.7480 0.0000
vt 53.3516 42.0933 0.0000
vt 54.4687 56.4651 0.0000
vt 48.8313 56.6707 0.0000
vt 52.1665 52.9694 0.0000
vt 49.2652 53.5551 0.0000
vt 54.9002 53.2940 0.0000
vt 51.3691 54.3385 0.0000
vt 30.7930 65.0119 0.0000
vt 25.0050 66.5581 0.0000
vt 29.1653 63.4656 0.0000
vt 33.2849 60.5111 0.0000
vt 29.3664 63.9049 0.0000
vt 30.1162 58.2486 0.0000
vt 50.7478 52.6315 0.0000
vt 46.9768 51.6624 0.0000
vt 49.4500 47.7859 0.0000
vt 53.0368 41.3284 0.0000
vt 51.0080 45.4549 0.0000
vt 48.4745 40.8126 0.0000
vt 54.1668 45.1566 0.0000
vt 49.5879 44.8186 0.0000
vt 53.3301 41.6076 0.0000
vt 54.9677 36.6292 0.0000
vt 51.4588 40.0937 0.0000
vt 49.1093 35.3528 0.0000
vt -44.2452 44.1115 0.0000
vt -36.3994 62.7080 0.0000
vt -43.6668 62.7080 0.0000
vt -29.4641 66.7507 0.0000
vt -39.3912 49.1769 0.0000
vt -33.5205 48.9612 0.0000
vt -33.9442 50.1964 0.0000
vt -39.8168 50.3560 0.0000
vt -35.4351 39.2693 0.0000
vt -37.0156 43.8966 0.0000
vt -31.2048 43.0225 0.0000
vt -34.2371 54.5515 0.0000
vt -32.5933 43.6303 0.0000
vt -38.4328 44.2859 0.0000
vt -34.3579 35.5626 0.0000
vt -40.1974 36.2182 0.0000
vt -35.0300 36.5902 0.0000
vt -40.8835 37.1068 0.0000
vt -35.9502 30.0115 0.0000
vt -42.3598 30.2048 0.0000
vt -36.1765 29.6920 0.0000
vt -41.1849 36.7345 0.0000
vt -36.7607 32.8742 0.0000
vt -42.9560 33.2141 0.0000
vt -36.9417 26.9392 0.0000
vt -37.6109 25.7528 0.0000
vt -43.9169 31.7345 0.0000
vt -44.4711 25.8143 0.0000
vt -46.5198 23.2675 0.0000
vt -52.8258 17.2859 0.0000
vt -45.9656 17.3474 0.0000
vt -46.8714 20.3546 0.0000
vt -53.0666 20.0147 0.0000
vt -52.8856 14.0797 0.0000
vt -53.1973 13.6114 0.0000
vt -47.0139 14.1241 0.0000
vt -48.1888 20.6538 0.0000
vt -48.3009 20.0671 0.0000
vt -54.1543 19.5506 0.0000
vt -53.2341 12.9718 0.0000
vt -54.3679 16.1562 0.0000
vt -48.5284 16.8118 0.0000
vt -50.2930 24.8795 0.0000
vt -56.1325 24.2239 0.0000
vt -56.7003 20.0991 0.0000
vt -50.8895 20.9733 0.0000
vt -53.6680 31.6282 0.0000
vt -50.2430 38.0682 0.0000
vt -56.1155 37.9086 0.0000
vt -54.6246 26.9815 0.0000
vt -61.4899 25.7821 0.0000
vt -62.6433 14.0156 0.0000
vt -57.7415 15.4104 0.0000
vt -62.2635 16.8066 0.0000
vt -60.5924 28.5109 0.0000
vt -66.1604 27.1234 0.0000
vt -64.7707 31.0384 0.0000
vt -66.1331 19.4593 0.0000
vt -61.5198 20.5001 0.0000
vt -66.7329 15.8312 0.0000
vt -65.9988 27.4671 0.0000
vt -71.4913 25.7612 0.0000
vt -72.9425 19.4447 0.0000
vt -74.6417 7.5571 0.0000
vt -67.2910 9.9944 0.0000
vt -73.8903 4.6293 0.0000
vt -80.8645 -0.3912 0.0000
vt -73.1904 -7.3586 0.0000
vt -63.1307 -25.0626 0.0000
vt -72.7491 -21.1996 0.0000
vt -74.9383 -25.0626 0.0000
vt -63.1307 -27.6875 0.0000
vt -74.9383 -27.6875 0.0000
vt -67.7645 -30.6102 0.0000
vt -60.5001 -31.2418 0.0000
vt -68.0189 -29.3782 0.0000
vt -65.5931 -36.8325 0.0000
vt -55.2111 -39.1184 0.0000
vt -55.9713 -45.0899 0.0000
vt -51.3539 -45.9429 0.0000
vt -63.2750 -31.3638 0.0000
vt -70.5426 -29.9336 0.0000
vt -64.7354 -37.2035 0.0000
vt -60.6249 -34.3283 0.0000
vt -58.4856 -39.9717 0.0000
vt -53.8473 -40.7033 0.0000
vt -58.9065 -35.2579 0.0000
vt -60.4735 -40.3352 0.0000
vt -56.6446 -40.8533 0.0000
vt -61.7747 -32.5145 0.0000
vt -67.3326 -36.8144 0.0000
vt -63.5263 -37.5311 0.0000
vt -65.1781 -26.8633 0.0000
vt -72.6239 -25.8998 0.0000
vt -70.9229 -30.9100 0.0000
vt -75.1933 -31.0678 0.0000
vt -76.9293 -35.1267 0.0000
vt -69.5627 -36.5763 0.0000
vt -79.5317 -23.6276 0.0000
vt -83.2808 -22.5132 0.0000
vt -81.5998 -27.5277 0.0000
vt -61.7336 -31.9095 0.0000
vt -65.2425 -35.3740 0.0000
vt -59.3841 -36.6504 0.0000
vt -66.7371 -34.0119 0.0000
vt -64.9723 -34.8461 0.0000
vt -62.6787 -26.8374 0.0000
vt -68.5019 -33.1776 0.0000
vt -53.1762 -40.1978 0.0000
vt -61.9020 -45.7845 0.0000
vt -57.7060 -47.5183 0.0000
vt -62.0636 -23.8476 0.0000
vt -69.1446 -21.0885 0.0000
vt -71.6210 -27.8485 0.0000
vt -67.6093 -16.5294 0.0000
vt -72.5588 -18.8781 0.0000
vt -65.7399 -22.2333 0.0000
vt -68.1593 -9.7119 0.0000
vt -71.4947 -7.4533 0.0000
vt -70.4298 -13.3604 0.0000
vt -66.9523 16.1368 0.0000
vt -74.4466 14.1855 0.0000
vt -72.0925 10.9168 0.0000
vt -71.7944 16.0775 0.0000
vt -63.0806 13.3445 0.0000
vt -66.3331 20.9605 0.0000
vt -63.2166 11.9137 0.0000
vt -72.0566 14.2059 0.0000
vt -69.7451 10.8523 0.0000
vt -67.7893 -2.1515 0.0000
vt -70.7918 0.6008 0.0000
vt -70.8831 -5.0657 0.0000
vt -70.2092 -7.2672 0.0000
vt -70.2946 -1.6006 0.0000
vt -72.9228 -5.0006 0.0000
vt -69.2886 -9.1369 0.0000
vt -72.0857 -6.9742 0.0000
vt -73.4126 -15.9340 0.0000
vt -71.4201 -22.3234 0.0000
vt -69.8165 -23.1032 0.0000
vt -69.3700 -14.0567 0.0000
vt -73.0237 -21.5435 0.0000
vt -75.4036 -5.2506 0.0000
vt -73.8250 -5.9555 0.0000
vt -72.0087 1.6569 0.0000
vt -76.9821 -4.5458 0.0000
vt -65.0420 -13.2973 0.0000
vt -67.9399 -11.2716 0.0000
vt -68.3830 -19.0851 0.0000
vt -67.8550 -8.8071 0.0000
vt -67.4901 -3.5359 0.0000
vt -70.5351 -6.5010 0.0000
vt -64.5382 -4.1861 0.0000
vt -68.1085 -1.0661 0.0000
vt -68.6616 -6.3209 0.0000
vt -63.2180 11.7286 0.0000
vt -69.7449 10.6578 0.0000
vt -66.8838 6.8768 0.0000
vt -66.9215 7.6758 0.0000
vt -60.3168 6.2821 0.0000
vt -63.2043 12.4883 0.0000
vt -60.1126 6.3745 0.0000
vt -66.7624 7.5337 0.0000
vt -63.8075 3.7575 0.0000
vt -61.2860 -4.0730 0.0000
vt -64.8102 -0.8215 0.0000
vt -66.3049 -5.0626 0.0000
vt -65.8657 3.9752 0.0000
vt -70.1497 2.1845 0.0000
vt -67.6388 -0.1572 0.0000
vt -64.1661 -6.0310 0.0000
vt -66.9907 -4.0790 0.0000
vt -66.4230 -10.2794 0.0000
vt -73.9660 6.0795 0.0000
vt -71.9365 5.2793 0.0000
vt -71.1217 11.4521 0.0000
vt -75.9954 6.8796 0.0000
vt -69.7263 6.7988 0.0000
vt -67.6757 6.1001 0.0000
vt -68.6941 11.1907 0.0000
vt -71.7768 7.4975 0.0000
vt -60.7572 -3.2079 0.0000
vt -63.6157 -1.1564 0.0000
vt -61.5340 -5.9122 0.0000
vt -62.1905 3.7934 0.0000
vt -67.2481 3.0255 0.0000
vt -64.6879 0.6120 0.0000
vt -65.4808 3.7575 0.0000
vt -59.8506 3.7575 0.0000
vt -62.8662 6.8433 0.0000
vt -59.8506 7.2161 0.0000
vt -65.4808 7.2161 0.0000
vt -61.3346 3.4031 0.0000
vt -62.2513 4.6338 0.0000
vt -59.7338 1.3224 0.0000
vt -57.6945 1.3224 0.0000
vt -65.1740 6.3735 0.0000
vt -63.5127 5.8486 0.0000
vt -65.6190 9.4356 0.0000
vt -66.8353 6.8984 0.0000
vt -57.6639 6.3631 0.0000
vt -60.6225 10.1131 0.0000
vt -62.2592 6.3631 0.0000
vt -54.1453 3.8386 0.0000
vt -57.9390 6.5663 0.0000
vt -54.5730 3.1773 0.0000
vt -58.3967 8.3395 0.0000
vt -58.6792 12.1266 0.0000
vt -61.6089 11.7327 0.0000
vt -56.0229 11.1005 0.0000
vt -58.9534 14.0708 0.0000
vt -58.7989 10.2763 0.0000
vt -56.2889 12.2680 0.0000
vt -56.7120 15.6659 0.0000
vt -59.1241 15.3294 0.0000
vt -56.2489 11.9757 0.0000
vt -52.7907 15.8293 0.0000
vt -56.6905 15.3713 0.0000
vt -52.8634 17.6821 0.0000
vt -56.4212 13.9203 0.0000
vt -52.7944 14.3347 0.0000
vt -18.1242 34.6864 0.0000
vt -16.4629 35.2114 0.0000
vt -17.6791 37.7485 0.0000
vt -19.7855 34.1615 0.0000
vt -16.8198 37.2064 0.0000
vt -14.3023 40.5179 0.0000
vt -18.8590 37.2064 0.0000
vt -17.5105 37.1365 0.0000
vt -23.1406 37.1365 0.0000
vt -21.6567 33.3235 0.0000
vt -23.1406 35.5269 0.0000
vt -17.5105 35.5269 0.0000
vt -20.1250 38.6127 0.0000
vt -14.0533 38.2224 0.0000
vt -19.1109 38.9903 0.0000
vt -16.6135 35.8089 0.0000
vt -14.3978 40.2854 0.0000
vt -17.9219 37.0339 0.0000
vt -12.9030 36.0444 0.0000
vt -18.9549 36.0831 0.0000
vt -25.6048 34.9239 0.0000
vt -21.9099 32.3069 0.0000
vt -26.4672 32.3055 0.0000
vt -19.8625 33.6991 0.0000
vt -23.5796 38.5116 0.0000
vt -16.7339 37.6199 0.0000
vt -23.2609 38.6907 0.0000
vt -19.5951 33.8389 0.0000
vt -10.3944 42.1391 0.0000
vt -13.9647 39.0191 0.0000
vt -9.8413 36.8843 0.0000
vt -12.0761 37.7419 0.0000
vt -16.3602 39.5326 0.0000
vt -14.5871 35.4002 0.0000
vt -7.8935 41.1650 0.0000
vt -10.7180 39.2130 0.0000
vt -8.4612 34.9646 0.0000
vt -15.3124 33.6237 0.0000
vt -13.2618 34.3224 0.0000
vt -16.3445 38.0155 0.0000
vt -17.3630 32.9249 0.0000
vt -10.2163 41.6631 0.0000
vt -13.0748 39.6116 0.0000
vt -12.2980 36.9073 0.0000
vt -11.4540 33.3631 0.0000
vt -9.4245 34.1633 0.0000
vt -14.2982 38.7357 0.0000
vt -13.4834 32.5630 0.0000
vt -5.1632 33.5319 0.0000
vt -3.5846 34.2367 0.0000
vt -8.5581 40.4394 0.0000
vt -6.7418 32.8270 0.0000
vt -3.0873 41.2128 0.0000
vt -5.9852 39.1870 0.0000
vt -2.6442 33.3993 0.0000
vt -9.2177 42.4604 0.0000
vt -8.8527 37.1892 0.0000
vt -6.1726 39.4953 0.0000
vt -27.5088 39.4589 0.0000
vt -26.5308 32.2233 0.0000
vt -23.6600 38.4372 0.0000
vt -26.3238 32.4441 0.0000
vt -27.2387 39.6880 0.0000
vt -29.5445 33.4670 0.0000
vt -32.9013 39.4173 0.0000
vt -30.4379 32.2505 0.0000
vt -28.3628 38.5523 0.0000
vt -29.1107 33.7199 0.0000
vt -31.1823 41.0096 0.0000
vt -32.9262 34.5997 0.0000
vt -30.9612 35.3826 0.0000
vt -34.8321 35.9731 0.0000
vt -35.5135 30.0746 0.0000
vt -30.9272 35.4403 0.0000
vt -35.4869 30.1387 0.0000
vt -31.6049 29.5489 0.0000
vt -36.1165 32.0787 0.0000
vt -32.6583 28.2251 0.0000
vt -32.2167 31.6207 0.0000
vt -33.0283 27.6991 0.0000
vt -36.5860 31.4608 0.0000
vt -36.6550 28.1134 0.0000
vt -37.1988 26.5623 0.0000
vt -37.2704 29.9097 0.0000
vt -40.1718 26.5623 0.0000
vt -44.4945 28.7062 0.0000
vt -40.4507 25.2375 0.0000
vt -37.6341 28.6566 0.0000
vt -44.4578 28.7779 0.0000
vt -42.4836 25.0864 0.0000
vt -40.4232 25.2986 0.0000
vt -45.4582 25.6479 0.0000
vt -47.7491 22.1440 0.0000
vt -43.1673 22.1440 0.0000
vt -47.9427 17.0262 0.0000
vt -45.9684 20.7178 0.0000
vt -50.0031 17.2384 0.0000
vt -50.0042 17.4244 0.0000
vt -45.9604 20.8931 0.0000
vt -52.8208 20.8435 0.0000
vt -52.8753 19.9035 0.0000
vt -52.9469 16.5561 0.0000
vt -49.9739 16.5561 0.0000
vt -24.1322 36.3852 0.0000
vt -27.0908 32.6352 0.0000
vt -22.4954 32.6352 0.0000
vt -21.0683 40.1197 0.0000
vt -24.8620 37.3920 0.0000
vt -24.4344 36.7308 0.0000
vt -28.6616 33.4491 0.0000
vt -28.9441 29.6620 0.0000
vt -25.7319 33.0552 0.0000
vt -29.3260 32.4445 0.0000
vt -32.2566 29.4743 0.0000
vt -29.4805 28.6501 0.0000
vt -32.3142 31.4361 0.0000
vt -32.7373 28.0381 0.0000
vt -29.9021 31.0995 0.0000
vt -29.1966 29.1368 0.0000
vt -30.9117 35.4609 0.0000
vt -31.5932 29.5699 0.0000
vt -31.8992 34.2760 0.0000
vt -29.9183 28.0300 0.0000
vt -28.5928 33.5783 0.0000
vt -29.8355 28.1947 0.0000
vt -24.4966 31.5876 0.0000
vt -28.4821 33.7362 0.0000
vt -22.6935 35.3110 0.0000
vt -28.2980 32.3779 0.0000
vt -25.3758 31.9314 0.0000
vt -26.6847 38.0951 0.0000
vt -28.5683 47.0470 0.0000
vt -31.1687 39.2086 0.0000
vt -29.9442 46.0839 0.0000
vt -27.7498 37.2032 0.0000
vt -24.9689 44.9793 0.0000
vt -21.5779 38.1879 0.0000
vt -21.9768 47.0099 0.0000
vt -25.3477 39.4708 0.0000
vt -28.8044 42.5590 0.0000
vt -26.8148 33.9551 0.0000
vt -24.1378 41.7920 0.0000
vt -22.0921 41.1054 0.0000
vt -23.4545 52.6845 0.0000
vt -26.7054 42.1462 0.0000
vt -20.8890 53.8559 0.0000
vt -20.1549 42.2201 0.0000
vt -15.3965 52.1500 0.0000
vt -12.2826 52.0311 0.0000
vt -9.3168 70.4937 0.0000
vt -17.6493 54.0993 0.0000
vt -13.3565 69.7507 0.0000
vt -15.1727 51.1399 0.0000
vt -6.9092 68.9441 0.0000
vt -9.1693 70.5202 0.0000
vt -23.0117 55.8693 0.0000
vt -17.5387 54.1447 0.0000
vt -30.3794 51.2481 0.0000
vt -18.8951 67.8123 0.0000
vt -25.1071 68.7159 0.0000
vt -26.0797 55.5599 0.0000
vt -24.4086 43.8556 0.0000
vt -20.5116 54.1725 0.0000
vt -22.7134 44.8634 0.0000
vt -23.8668 56.6300 0.0000
vt -27.6152 46.2582 0.0000
vt -52.6314 9.6529 0.0000
vt -57.1911 14.9545 0.0000
vt -56.5134 9.0631 0.0000
vt -53.3207 15.6074 0.0000
vt -57.1915 15.0169 0.0000
vt -52.6393 9.7088 0.0000
vt -54.9188 12.8986 0.0000
vt -56.9904 5.6089 0.0000
vt -53.1749 6.4887 0.0000
vt -57.1702 8.8825 0.0000
vt -54.7067 16.0493 0.0000
vt -59.2452 15.1843 0.0000
vt -57.5201 18.4872 0.0000
vt -59.4038 9.5354 0.0000
vt -54.9198 10.6489 0.0000
vt -59.3264 11.6708 0.0000
vt -57.1321 20.5516 0.0000
vt -62.1073 19.4470 0.0000
vt -62.7671 14.9022 0.0000
vt -63.1660 6.0803 0.0000
vt -59.3962 7.3631 0.0000
vt -62.5705 17.7754 0.0000
vt -60.5809 26.3793 0.0000
vt -65.2475 25.6122 0.0000
vt -60.3289 6.4310 0.0000
vt -59.3508 13.6666 0.0000
vt -63.1996 12.6450 0.0000
vt -59.3733 13.1362 0.0000
vt -60.2881 5.8923 0.0000
vt -57.0675 6.9152 0.0000
vt -59.1279 11.2796 0.0000
vt -57.1469 17.5255 0.0000
vt -60.4533 16.8278 0.0000
vt -57.1908 14.9190 0.0000
vt -58.9060 8.5949 0.0000
vt -56.5093 9.0281 0.0000
vt -64.4469 14.3930 0.0000
vt -59.1080 11.0001 0.0000
vt -60.4614 16.5416 0.0000
vt -58.4995 8.5323 0.0000
vt -64.1041 11.4655 0.0000
vt -61.4218 8.0859 0.0000
vt -53.1624 -40.5106 0.0000
vt -57.5499 -46.6707 0.0000
vt -53.5885 -47.6973 0.0000
# 641 texture coords

o Capo
g Capo
s 1
f 1/1/1 2/2/2 3/3/3 
f 4/4/4 2/5/2 1/6/1 
f 4/7/4 5/8/5 2/9/2 
f 5/10/5 4/11/4 6/12/6 
f 7/13/7 6/14/6 4/15/4 
f 8/16/8 9/17/9 10/18/10 
f 9/19/9 8/20/8 11/21/11 
f 12/22/12 11/23/11 8/24/8 
f 11/25/11 12/26/12 13/27/13 
f 12/28/12 14/29/14 13/30/13 
f 14/31/14 12/32/12 15/33/15 
f 16/34/16 14/35/14 15/36/15 
f 14/37/14 16/38/16 17/39/17 
f 17/40/17 16/41/16 18/42/18 
f 16/43/16 19/44/19 18/45/18 
f 16/46/16 20/47/20 19/48/19 
f 16/49/16 15/50/15 20/51/20 
f 15/52/15 7/53/7 20/54/20 
f 20/55/20 7/56/7 21/57/21 
f 7/58/7 4/59/4 21/60/21 
f 21/61/21 4/62/4 1/63/1 
f 21/64/21 1/65/1 22/66/22 
f 22/67/22 1/68/1 23/69/23 
f 1/70/1 3/71/3 23/72/23 
f 24/73/24 25/74/25 26/75/26 27/76/27 
f 26/77/26 28/78/28 27/79/27 
f 29/80/29 28/81/28 26/82/26 
f 29/83/29 30/84/30 28/85/28 
f 29/86/29 31/87/31 30/88/30 
f 31/89/31 29/90/29 32/91/32 
f 33/92/33 32/93/32 29/94/29 
f 33/95/33 34/96/34 32/97/32 
f 35/98/35 34/99/34 33/100/33 
f 36/101/36 34/102/34 35/103/35 
f 34/104/34 36/105/36 37/106/37 
f 37/107/37 36/108/36 38/109/38 
f 38/110/38 36/111/36 39/112/39 
f 39/113/39 36/114/36 40/115/40 
f 36/116/36 35/117/35 40/118/40 
f 35/119/35 33/120/33 40/121/40 
f 40/122/40 33/123/33 41/124/41 
f 41/125/41 33/126/33 26/127/26 
f 33/128/33 29/129/29 26/130/26 
f 41/131/41 26/132/26 42/133/42 
f 42/134/42 26/135/26 43/136/43 
f 44/137/44 43/138/43 26/139/26 25/140/25 
f 45/141/45 41/142/41 42/143/42 
f 40/144/40 41/145/41 45/146/45 
f 46/147/46 40/148/40 45/149/45 
f 39/150/39 40/151/40 46/152/46 
f 47/153/47 39/154/39 46/155/46 
f 48/156/48 39/157/39 47/158/47 
f 49/159/49 39/160/39 48/161/48 
f 50/162/50 39/163/39 49/164/49 
f 50/165/50 38/166/38 39/167/39 
f 51/168/51 38/169/38 50/170/50 
f 52/171/52 38/172/38 51/173/51 
f 52/174/52 37/175/37 38/176/38 
f 53/177/53 54/178/54 55/179/55 
f 56/180/56 54/181/54 53/182/53 
f 56/183/56 57/184/57 54/185/54 
f 58/186/58 57/187/57 56/188/56 
f 57/189/57 58/190/58 59/191/59 
f 59/192/59 52/193/52 57/194/57 
f 57/195/57 52/196/52 51/197/51 
f 57/198/57 51/199/51 54/200/54 
f 54/201/54 51/202/51 50/203/50 
f 54/204/54 50/205/50 55/206/55 
f 55/207/55 50/208/50 49/209/49 
f 9/210/9 60/211/60 10/212/10 
f 60/213/60 9/214/9 61/215/61 
f 61/216/61 9/217/9 62/218/62 
f 63/219/63 62/220/62 9/221/9 
f 62/222/62 63/223/63 64/224/64 
f 65/225/65 64/224/64 63/223/63 
f 64/226/64 65/227/65 66/228/66 
f 67/229/67 66/230/66 65/231/65 
f 66/232/66 67/233/67 68/234/68 
f 68/235/68 67/236/67 69/237/69 
f 67/238/67 70/239/70 69/240/69 
f 67/241/67 71/242/71 70/243/70 
f 71/244/71 67/245/67 65/246/65 
f 65/247/65 72/248/72 71/249/71 
f 72/250/72 65/251/65 63/252/63 
f 63/252/63 73/253/73 72/250/72 
f 73/254/73 63/255/63 9/256/9 
f 9/257/9 11/258/11 73/259/73 
f 11/260/11 74/261/74 73/262/73 
f 74/263/74 11/264/11 13/265/13 
f 13/266/13 75/267/75 74/268/74 
f 75/269/75 13/270/13 14/271/14 
f 14/272/14 76/273/76 75/274/75 
f 14/275/14 17/276/17 76/277/76 
f 76/278/76 17/279/17 18/280/18 
f 76/281/76 18/282/18 77/283/77 
f 77/284/77 18/285/18 78/286/78 
f 18/287/18 79/288/79 78/289/78 
f 18/290/18 19/291/19 79/292/79 
f 19/293/19 80/294/80 79/295/79 
f 19/296/19 81/297/81 80/298/80 
f 19/299/19 82/300/82 81/301/81 
f 19/302/19 22/303/22 82/304/82 
f 20/305/20 22/306/22 19/307/19 
f 20/308/20 21/309/21 22/310/22 
f 22/311/22 23/312/23 82/313/82 
f 83/314/83 84/315/84 85/316/85 86/317/86 
f 85/318/85 87/319/87 86/320/86 
f 85/321/85 77/322/77 87/323/87 
f 76/324/76 77/325/77 85/326/85 
f 88/327/88 76/328/76 85/329/85 
f 75/330/75 76/331/76 88/332/88 
f 88/333/88 89/334/89 75/335/75 
f 89/336/89 88/337/88 90/338/90 
f 90/339/90 88/340/88 91/341/91 
f 91/342/91 88/343/88 85/344/85 
f 91/345/91 85/346/85 92/347/92 
f 93/348/93 92/349/92 85/350/85 84/351/84 
f 94/352/94 95/353/95 91/354/91 92/355/92 
f 96/356/96 91/357/91 95/358/95 
f 96/359/96 90/360/90 91/361/91 
f 97/362/97 90/363/90 96/364/96 
f 89/365/89 90/366/90 97/367/97 
f 97/368/97 98/369/98 89/370/89 
f 98/371/98 97/372/97 99/373/99 
f 99/374/99 97/375/97 100/376/100 
f 97/377/97 96/378/96 100/379/100 
f 100/380/100 96/381/96 101/382/101 
f 102/383/102 101/384/101 96/385/96 95/386/95 
f 103/387/103 104/388/104 100/389/100 101/390/101 
f 105/391/105 100/392/100 104/393/104 
f 99/394/99 100/395/100 105/396/105 
f 105/397/105 106/398/106 99/399/99 
f 106/400/106 105/401/105 107/402/107 
f 105/403/105 108/404/108 107/405/107 
f 109/406/109 108/407/108 105/408/105 104/409/104 
f 110/410/110 106/411/110 107/412/110 
f 111/413/111 106/414/106 110/415/112 
f 111/416/111 112/417/113 106/418/106 
f 113/419/114 112/420/113 111/421/111 
f 113/422/114 114/423/115 112/424/113 
f 113/425/114 70/426/70 114/427/115 
f 70/428/70 113/429/114 115/430/116 
f 116/431/117 117/432/118 118/433/119 119/434/120 
f 119/435/120 118/436/119 120/437/121 
f 118/438/119 121/439/122 120/440/121 
f 121/441/122 118/442/119 122/443/123 
f 123/444/124 122/445/123 118/446/119 
f 124/447/125 122/448/123 123/449/124 
f 124/450/125 125/451/126 122/452/123 
f 125/453/126 124/454/125 31/455/31 
f 30/456/30 31/457/31 124/458/125 
f 30/459/30 124/460/125 126/461/127 
f 126/462/127 124/463/125 123/464/124 
f 126/465/127 123/466/124 127/467/128 
f 128/468/129 127/469/128 123/470/124 117/471/118 
f 123/472/124 118/473/119 117/474/118 
f 129/475/130 130/476/131 126/477/127 127/478/128 
f 131/479/132 27/480/27 28/481/28 130/482/131 
f 28/483/28 126/484/127 130/485/131 
f 30/486/30 126/487/127 28/488/28 
f 132/489/133 125/490/126 31/491/31 
f 125/492/126 132/493/133 133/494/134 
f 64/495/64 133/496/134 132/497/133 
f 133/498/134 64/499/64 66/500/66 
f 133/501/134 66/502/66 68/503/68 
f 133/504/134 68/505/68 134/506/135 
f 68/507/68 135/508/136 134/509/135 
f 135/510/136 68/511/68 136/512/137 
f 136/513/137 68/514/68 137/515/138 
f 69/516/69 137/517/138 68/518/68 
f 69/519/69 138/520/139 137/521/138 
f 69/522/69 139/523/140 138/524/139 
f 139/525/140 69/526/69 140/527/141 
f 140/528/141 69/529/69 70/530/70 
f 70/531/70 115/532/116 140/533/141 
f 121/534/122 141/535/142 120/536/121 
f 121/537/122 142/538/143 141/539/142 
f 143/540/144 142/541/143 121/542/122 
f 143/543/144 135/544/136 142/545/143 
f 134/546/135 135/547/136 143/548/144 
f 143/549/144 133/550/134 134/551/135 
f 133/552/134 143/553/144 125/554/126 
f 143/555/144 122/556/123 125/557/126 
f 122/558/123 143/559/144 121/560/122 
f 132/561/133 62/562/62 64/563/64 
f 62/564/62 132/565/133 144/566/145 
f 31/567/31 144/568/145 132/569/133 
f 144/570/145 31/571/31 32/572/32 
f 32/573/32 145/574/146 144/575/145 
f 145/576/146 32/577/32 34/578/34 
f 34/579/34 146/580/147 145/581/146 
f 146/582/147 34/583/34 37/584/37 
f 146/585/147 61/586/61 145/587/146 
f 61/588/61 146/589/147 60/590/60 
f 61/591/61 144/592/145 145/593/146 
f 144/594/145 61/595/61 62/596/62 
f 70/597/70 147/598/148 114/599/115 
f 71/600/71 147/601/148 70/602/70 
f 72/603/72 147/604/148 71/605/71 
f 147/606/148 72/607/72 148/608/149 
f 73/609/73 148/610/149 72/611/72 
f 148/612/149 73/613/73 74/614/74 
f 74/615/74 89/616/89 148/617/149 
f 89/618/89 74/619/74 75/620/75 
f 98/621/98 148/622/149 89/623/89 
f 148/624/149 98/625/98 147/626/148 
f 112/627/113 147/628/148 98/629/98 
f 147/630/148 112/631/113 114/632/115 
f 99/633/99 112/634/113 98/635/98 
f 112/636/113 99/637/99 106/638/106 
f 77/639/77 78/640/78 87/641/87 
# 12 polygons - 199 triangles

