# 3ds Max Wavefront OBJ Exporter v0.99 - (c)2007 guruware
# File Created: 25.03.2025 17:30:50

mtllib dado-opti.mtl

#
# object Box001
#

v  -3.6473 -3.6473 3.6473
v  -3.6473 -3.6473 -3.6473
v  3.6473 -3.6473 -3.6473
v  3.6473 -3.6473 3.6473
v  -3.6473 3.6473 3.6473
v  3.6473 3.6473 3.6473
v  3.6473 3.6473 -3.6473
v  -3.6473 3.6473 -3.6473
# 8 vertices

vn -0.5774 -0.5774 0.5774
vn -0.5774 -0.5774 -0.5774
vn 0.5774 -0.5774 -0.5774
vn 0.5774 -0.5774 0.5774
vn -0.5774 0.5774 0.5774
vn 0.5774 0.5774 0.5774
vn 0.5774 0.5774 -0.5774
vn -0.5774 0.5774 -0.5774
# 8 vertex normals

vt 0.5127 0.3269 0.0000
vt 0.5102 0.0092 0.0000
vt 0.7440 0.0073 0.0000
vt 0.7466 0.3250 0.0000
vt 0.5098 0.6707 0.0000
vt 0.7449 0.6707 0.0000
vt 0.7449 0.9912 0.0000
vt 0.5098 0.9912 0.0000
vt 0.2619 0.3359 0.0000
vt 0.4984 0.3387 0.0000
vt 0.4946 0.6598 0.0000
vt 0.2581 0.6570 0.0000
vt 0.0072 0.3360 0.0000
vt 0.2476 0.3360 0.0000
vt 0.2476 0.6615 0.0000
vt 0.0072 0.6615 0.0000
vt 0.7549 0.3353 0.0000
vt 0.9960 0.3353 0.0000
vt 0.9960 0.6581 0.0000
vt 0.7549 0.6581 0.0000
vt 0.5105 0.3374 0.0000
vt 0.7482 0.3374 0.0000
vt 0.7482 0.6571 0.0000
vt 0.5105 0.6571 0.0000
# 24 texture coords

o Box001
g Box001
usemtl 01___Default
s 2
f 1/1/1 2/2/2 3/3/3 4/4/4 
s 4
f 5/5/5 6/6/6 7/7/7 8/8/8 
s 8
f 1/9/1 4/10/4 6/11/6 5/12/5 
s 16
f 4/13/4 3/14/3 7/15/7 6/16/6 
s 32
f 3/17/3 2/18/2 8/19/8 7/20/7 
s 64
f 2/21/2 1/22/1 5/23/5 8/24/8 
# 6 polygons

